<svg xmlns="http://www.w3.org/2000/svg" viewBox="0 0 86.94 100"><path d="M19.85,48.48q1.39,19.05,13.43,30.8a41.24,41.24,0,0,0,29,11.9q13.44,0,21.42-6.44,7.27-6.15,9-10.21l.83-2A41.56,41.56,0,0,1,89.56,81a41.29,41.29,0,0,1-5.6,7.7A36.15,36.15,0,0,1,62.4,99.44a51,51,0,0,1-22.67-1.68A43.18,43.18,0,0,1,21.81,87.12,50.54,50.54,0,0,1,6.55,51.84,55.35,55.35,0,0,1,10,30.43a42.09,42.09,0,0,1,10.64-16.1Q34.12,1.73,54,.19A65.79,65.79,0,0,1,72.34,1.31Q82.56,3.13,88,7.05l1.82,1.12-.14,20q-8-15.81-22.26-22.54Q50.93-1.91,36.5,6.49q-9,5.32-13.29,16.52A56.34,56.34,0,0,0,19.85,48.48Z" transform="translate(-6.53 0)"/></svg>